<mxfile host="app.diagrams.net" modified="2023-12-17T08:51:35.881Z" agent="Mozilla/5.0 (Macintosh; Intel Mac OS X 10_15_7) AppleWebKit/605.1.15 (KHTML, like Gecko) Version/16.6 Safari/605.1.15" version="22.1.11" etag="fDgt84vlkFu0amHmEHSB" type="github">
  <diagram name="第 1 页" id="gGUT8NRncDwH_TdcZQOX">
    <mxGraphModel>
      <root>
        <mxCell id="0" />
        <mxCell id="1" parent="0" />
      </root>
    </mxGraphModel>
  </diagram>
</mxfile>
